# xmcd CD database file
#
# Track frame offsets:
#	150
#	18605
#	44015
#	61117
#	80850
#	94619
#	117305
#	138178
#	155220
#	177653
#	195723
#	214074
#	229471
#	257340
#	283157
#
# Disc length: 3908 seconds
#
# Revision: 0
# Processed by: cddbd v1.4PL0 Copyright (c) Steve Scherf et al.
# Submitted via: CDex 1.50beta9
#
DISCID=e30f420f
DTITLE=CURTIS MAGEE - 55 SUOERB SONGS
DYEAR=1900
DGENRE=Country
TTITLE0=DO WHAT YOU DO DO WELL - HELLO TROUBLE - FULL OF EMPTY - BACK IN MY BABY'S ARMS - BLUE MOON TURNS TO GOLD
TTITLE1=BEST YEARS OF MY LIFE -BAD MOON ARISING - PICTURE OF YOU - LITTLE ARROWS - KARMA KAMELEON
TTITLE2=ONLY THIS MOMENT -STAND BESIDE ME -YOU KNOW THAT I KNOW - CABIN HOME ON THE HILL-
TTITLE3=LOVE LETTERS IN THE SAND - RED SAILS - FRAULEINBLACK HILLS OF DAKOTA
TTITLE4=DEEP IN THE HEART OF TEXAS - ROLL OUT THE BARREL - BABY FACE - HAPPY DAYS #ARE HERE AGAIN
TTITLE5=I GUESE IT DOESN'T MATTER - BYE BYE LOVE - IT'S YOU IT'S YOU IT'S YOU 
TTITLE6=FULL TIME FOOL - MISS SOMEONE - COLD WINDY CITY OF CHICAGO - TOO OLD DIE YOUNG
TTITLE7=TEENAGER IN LOVE - ALL MY LUVIN-I FEEL FINE
TTITLE8=THIS SONG IS JUST FOR YOU - ANGEL JUDY - SO AFRAID OF LOSING YOU - WEDDING BELLS
TTITLE9=IF I KISS YOU -I'M JUST LUCKY I GUESS - DIM LIGHTS
TTITLE10=THE DOOR IS ALWAYS OPEN - PAPAS WAGON - BACK IN LOVE BY MONDAY
TTITLE11=IF TEARDROPS WERE PENNIES - BLACKBOARD OF MY HEART - KEEP ON THE SUNNYSIDE
TTITLE12=ILD RUSTIC BRIDGE - BUNCH OF OF VIOLET - FORGET ME NOT - LITTLE SWEETHEARTS
TTITLE13=BIG TOM DOES'NT PLAY HERE - SUNSEY YEARS OF LIFE -PAIN OF LOVING YOU - I LOVE YOU STILL - BROKEN MARRIAGE VOWS
TTITLE14=IRISH CD
EXTD=
EXTT0=
EXTT1=
EXTT2=
EXTT3=
EXTT4=
EXTT5=
EXTT6=
EXTT7=
EXTT8=
EXTT9=
EXTT10=
EXTT11=
EXTT12=
EXTT13=
EXTT14=
PLAYORDER=
